<svg width="83" height="17" viewBox="0 0 83 17" fill="none" xmlns="http://www.w3.org/2000/svg">
<path d="M10.2378 6.31258L8.28222 0L6.32681 6.31258H0L5.1189 10.2137L3.16349 16.5272L8.28222 12.6243L13.4011 16.5272L11.4457 10.2137L16.5646 6.31258H10.2378Z" fill="#EABD94"/>
<path d="M26.8466 6.31258L24.8912 0L22.9356 6.31258H16.6088L21.7277 10.2137L19.7723 16.5272L24.8912 12.6243L30.0101 16.5272L28.0545 10.2137L33.1734 6.31258H26.8466Z" fill="#EABD94"/>
<path d="M43.4554 6.31258L41.5 0L39.5446 6.31258H33.2176L38.3365 10.2137L36.3811 16.5272L41.5 12.6243L46.6189 16.5272L44.6635 10.2137L49.7822 6.31258H43.4554Z" fill="#EABD94"/>
<path d="M60.0642 6.31258L58.1088 0L56.1534 6.31258H49.8266L54.9455 10.2137L52.9899 16.5272L58.1088 12.6243L63.2277 16.5272L61.2723 10.2137L66.3912 6.31258H60.0642Z" fill="#EABD94"/>
<path d="M74.7178 0L72.7622 6.31258H66.4354L71.5543 10.2137L69.5989 16.5272L74.7178 12.6243L79.8365 16.5272L77.8811 10.2137L83 6.31258H76.6732L74.7178 0Z" fill="#EABD94"/>
</svg>
