<svg width="58" height="58" viewBox="0 0 58 58" fill="none" xmlns="http://www.w3.org/2000/svg">
<path d="M4.83334 28.9998C4.83334 19.886 4.83334 15.3291 7.66464 12.4978C10.496 9.6665 15.0528 9.6665 24.1667 9.6665H33.8333C42.9471 9.6665 47.5042 9.6665 50.3353 12.4978C53.1667 15.3291 53.1667 19.886 53.1667 28.9998V33.8332C53.1667 42.9469 53.1667 47.504 50.3353 50.3351C47.5042 53.1665 42.9471 53.1665 33.8333 53.1665H24.1667C15.0528 53.1665 10.496 53.1665 7.66464 50.3351C4.83334 47.504 4.83334 42.9469 4.83334 33.8332V28.9998Z" stroke="#C11313" stroke-width="3"/>
<path d="M16.9167 9.6665V6.0415" stroke="#C11313" stroke-width="3" stroke-linecap="round"/>
<path d="M41.0833 9.6665V6.0415" stroke="#C11313" stroke-width="3" stroke-linecap="round"/>
<path d="M6.04166 21.75H51.9583" stroke="#C11313" stroke-width="3" stroke-linecap="round"/>
</svg>
