<svg width="58" height="58" viewBox="0 0 58 58" fill="none" xmlns="http://www.w3.org/2000/svg">
<path d="M41.5551 39.3937C41.3728 39.2704 41.2405 39.0863 41.1819 38.8743C41.1752 38.8505 40.8962 37.8434 40.5397 36.547L37.4368 37.5133L37.0827 39.147C36.9886 39.5805 36.6052 39.8766 36.179 39.8767C36.1141 39.8767 36.048 39.8698 35.982 39.8555C35.4824 39.7471 35.1653 39.2544 35.2736 38.7548L35.7421 36.5938C35.8128 36.2679 36.0532 36.0053 36.3716 35.9062L40.0499 34.7609C39.6818 33.4145 39.3196 32.0776 39.1306 31.3455C38.8092 30.102 38.2746 28.9427 37.5416 27.9C37.2897 27.5417 37.3234 27.0559 37.6224 26.7359C40.1832 23.9943 42.2601 20.7873 43.7956 17.2037C45.8125 12.4964 46.7184 7.52769 46.4463 2.72962C42.7847 5.84223 39.812 9.9253 37.795 14.6327C36.5766 17.4763 35.7614 20.4224 35.3683 23.3989C35.8101 23.665 36.237 23.9576 36.641 24.2772C37.0419 24.5942 37.1099 25.1763 36.7927 25.5771C36.6102 25.8081 36.3394 25.9286 36.0662 25.9286C35.865 25.9286 35.6625 25.8634 35.4927 25.7289C35.0116 25.3485 34.4936 25.0106 33.9535 24.7223C33.9491 24.72 33.9444 24.7185 33.9399 24.7161C32.4202 23.9077 30.7581 23.4979 28.9999 23.4979C27.2418 23.4979 25.5797 23.9077 24.06 24.7161C24.0558 24.7184 24.0513 24.7198 24.047 24.7221C23.5067 25.0105 22.9886 25.3482 22.5072 25.7289C22.3372 25.8634 22.1346 25.9286 21.9337 25.9286C21.6605 25.9286 21.3899 25.8081 21.2072 25.5771C20.8901 25.1763 20.958 24.5942 21.3589 24.2772C21.7629 23.9576 22.1899 23.665 22.6316 23.3989C22.2385 20.4223 21.4233 17.4761 20.2049 14.6325C18.1878 9.92518 15.2151 5.84211 11.5536 2.72949C11.2815 7.52769 12.1875 12.4964 14.2047 17.2038C15.7403 20.7876 17.8173 23.9947 20.378 26.7361C20.6768 27.0561 20.7105 27.5418 20.4587 27.9002C19.7256 28.9428 19.1911 30.1021 18.8697 31.3456C18.6805 32.0777 18.3183 33.4145 17.9504 34.761L21.6287 35.9063C21.947 36.0055 22.1873 36.2681 22.2581 36.5939L22.7267 38.7549C22.8349 39.2545 22.5179 39.7472 22.0182 39.8556C21.9522 39.8698 21.8863 39.8768 21.8213 39.8768C21.3951 39.8768 21.0115 39.5806 20.9176 39.1471L20.5634 37.5134L17.4606 36.5471C17.1039 37.8435 16.8249 38.8506 16.8184 38.8744C16.7596 39.0864 16.6273 39.2705 16.4452 39.3938C14.2255 40.8959 12.9002 43.3902 12.9002 46.0663C12.9002 50.5053 16.5117 54.1166 20.9507 54.1166H23.5135C23.7347 54.1166 23.9484 54.1959 24.1162 54.3399C25.4758 55.5065 27.2102 56.149 29.0002 56.149C30.7902 56.149 32.5247 55.5065 33.8842 54.3399C34.0519 54.1959 34.2657 54.1166 34.4869 54.1166H37.0497C41.4888 54.1166 45.1002 50.5052 45.1002 46.0663C45.1 43.3901 43.7747 40.8958 41.5551 39.3937ZM28.0744 32.2587C28.0744 31.7475 28.4887 31.3332 28.9999 31.3332C29.5112 31.3332 29.9255 31.7475 29.9255 32.2587V33.601C29.9255 34.1122 29.5112 34.5265 28.9999 34.5265C28.4887 34.5265 28.0744 34.1122 28.0744 33.601V32.2587ZM25.6063 29.5742V28.2319C25.6063 27.7207 26.0206 27.3064 26.5319 27.3064C27.0431 27.3064 27.4574 27.7207 27.4574 28.2319V29.5742C27.4574 30.0854 27.0431 30.4997 26.5319 30.4997C26.0206 30.4997 25.6063 30.0854 25.6063 29.5742ZM31.0153 52.4439H26.9849C26.4736 52.4439 26.0594 52.0296 26.0594 51.5184C26.0594 51.0071 26.4736 50.5928 26.9849 50.5928H28.0745V48.6411L26.4186 47.3599C26.0143 47.0472 25.94 46.4658 26.2529 46.0616C26.4344 45.8269 26.7065 45.7043 26.9818 45.7032C26.9848 45.7023 31.0153 45.7023 31.0153 45.7023C31.2935 45.7042 31.5658 45.8267 31.7473 46.0616C32.0601 46.4657 31.986 47.0471 31.5816 47.3599L29.9255 48.6412V50.593H31.0151C31.5264 50.593 31.9407 51.0072 31.9407 51.5185C31.9407 52.0298 31.5264 52.4439 31.0153 52.4439ZM32.3936 29.5742C32.3936 30.0854 31.9793 30.4997 31.468 30.4997C30.9568 30.4997 30.5425 30.0854 30.5425 29.5742V28.2319C30.5425 27.7207 30.9568 27.3064 31.468 27.3064C31.9793 27.3064 32.3936 27.7207 32.3936 28.2319V29.5742Z" fill="#FEFEFE"/>
<path d="M42.8773 38.0607C42.5392 36.8381 41.3274 32.4498 40.9225 30.8825C40.6083 29.6664 40.1199 28.5184 39.4674 27.4604C41.9496 24.6837 43.976 21.4821 45.4967 17.9329C47.8797 12.3714 48.7933 6.45348 48.1386 0.818855C48.1003 0.489366 47.8888 0.205537 47.5838 0.0749755C47.2788 -0.0559562 46.9274 -0.0132584 46.6625 0.186286C42.1313 3.59878 38.4765 8.34206 36.0936 13.9035C34.8937 16.7037 34.0643 19.6002 33.6216 22.5312C32.1666 21.9501 30.5915 21.6467 29 21.6467C27.4086 21.6467 25.8335 21.9501 24.3784 22.5312C23.9358 19.6002 23.1063 16.7037 21.9065 13.9035C19.5234 8.34206 15.8686 3.59878 11.3374 0.186286C11.0725 -0.0132584 10.7212 -0.0559562 10.416 0.0749755C10.1111 0.20566 9.89945 0.489366 9.8612 0.818855C9.20654 6.45336 10.1202 12.3713 12.5032 17.9329C14.024 21.482 16.0506 24.684 18.5323 27.4604C17.88 28.5184 17.3916 29.6664 17.0774 30.8825C16.6725 32.4498 15.4607 36.8381 15.1225 38.0607C12.5651 39.9243 11.0487 42.8911 11.0487 46.0662C11.0487 51.5258 15.4905 55.9676 20.9503 55.9676H23.1804C24.832 57.2808 26.8847 57.9999 28.9997 57.9999C31.1147 57.9999 33.1674 57.2808 34.8189 55.9676H37.0491C42.5088 55.9676 46.9506 51.5258 46.9506 46.0662C46.951 42.891 45.4346 39.9242 42.8773 38.0607ZM37.0494 54.1165H34.4866C34.2654 54.1165 34.0517 54.1958 33.8839 54.3398C32.5243 55.5064 30.7899 56.1489 28.9999 56.1489C27.2099 56.1489 25.4754 55.5064 24.116 54.3398C23.9483 54.1958 23.7344 54.1165 23.5133 54.1165H20.9504C16.5113 54.1165 12.8999 50.5051 12.8999 46.0662C12.8999 43.39 14.2251 40.8958 16.4449 39.3937C16.6272 39.2704 16.7595 39.0863 16.8181 38.8743C16.8248 38.8505 17.1038 37.8434 17.4603 36.547L20.5632 37.5133L20.9173 39.147C21.0114 39.5805 21.3948 39.8767 21.821 39.8767C21.8859 39.8767 21.9519 39.8697 22.018 39.8555C22.5176 39.7471 22.8347 39.2544 22.7264 38.7548L22.2579 36.5938C22.1872 36.2679 21.9468 36.0053 21.6284 35.9062L17.9501 34.7609C18.3182 33.4145 18.6804 32.0776 18.8694 31.3455C19.1908 30.102 19.7254 28.9427 20.4584 27.9001C20.7103 27.5419 20.6766 27.056 20.3777 26.736C17.8171 23.9946 15.74 20.7875 14.2044 17.2037C12.1875 12.4963 11.2815 7.52759 11.5536 2.72952C15.2152 5.84214 18.1879 9.9252 20.2049 14.6326C21.4233 17.4762 22.2385 20.4223 22.6315 23.3989C22.1899 23.6649 21.7629 23.9576 21.3589 24.2772C20.9579 24.5942 20.8899 25.1763 21.2072 25.5772C21.3897 25.8082 21.6605 25.9286 21.9337 25.9286C22.1347 25.9286 22.3373 25.8634 22.5071 25.7289C22.9885 25.3482 23.5067 25.0104 24.047 24.7221C24.0512 24.7199 24.0557 24.7184 24.0599 24.7162C25.5797 23.9077 27.2418 23.4979 28.9999 23.4979C30.7581 23.4979 32.4202 23.9077 33.9399 24.7162C33.9443 24.7185 33.949 24.72 33.9535 24.7223C34.4936 25.0106 35.0115 25.3484 35.4927 25.7289C35.6626 25.8634 35.8651 25.9286 36.0662 25.9286C36.3394 25.9286 36.61 25.8082 36.7926 25.5772C37.1098 25.1763 37.0419 24.5942 36.641 24.2772C36.2369 23.9576 35.8101 23.665 35.3683 23.3989C35.7613 20.4223 36.5766 17.4762 37.7949 14.6327C39.8121 9.92533 42.7848 5.84226 46.4463 2.72964C46.7184 7.52771 45.8124 12.4964 43.7953 17.2038C42.2598 20.7875 40.1829 23.9945 37.6222 26.736C37.3231 27.056 37.2895 27.5417 37.5413 27.9001C38.2743 28.9429 38.8089 30.1021 39.1303 31.3457C39.3195 32.0777 39.6816 33.4145 40.0496 34.761L36.3713 35.9063C36.053 36.0055 35.8127 36.2681 35.7418 36.5939L35.2733 38.755C35.1651 39.2545 35.4821 39.7473 35.9817 39.8556C36.0478 39.8699 36.1137 39.8768 36.1787 39.8768C36.6049 39.8767 36.9885 39.5807 37.0824 39.1471L37.4366 37.5134L40.5394 36.5471C40.8961 37.8435 41.1751 38.8506 41.1816 38.8744C41.2404 39.0864 41.3727 39.2705 41.5548 39.3938C43.7745 40.8959 45.0998 43.3903 45.0998 46.0663C45.0999 50.5051 41.4885 54.1165 37.0494 54.1165Z" fill="#C11313"/>
<path d="M28.9999 47.017L30.4488 45.8961C30.6182 45.765 30.819 45.7028 31.018 45.7035C31.0151 45.7026 26.9846 45.7026 26.9846 45.7026C27.1807 45.7028 27.3815 45.765 27.5509 45.8961L28.9999 47.017Z" fill="#C11313"/>
<path d="M31.0153 50.5928H29.9256V48.641L31.5816 47.3598C31.9858 47.0471 32.0601 46.4658 31.7473 46.0615C31.5658 45.8267 31.2935 45.7041 31.0182 45.7031C30.8192 45.7024 30.6185 45.7647 30.4491 45.8958L28.9999 47.0169L27.5511 45.896C27.3816 45.7648 27.1808 45.7026 26.9818 45.7034C26.7065 45.7045 26.4344 45.827 26.2528 46.0617C25.94 46.4659 26.0142 47.0472 26.4186 47.3601L28.0745 48.6413V50.593H26.9849C26.4736 50.593 26.0594 51.0073 26.0594 51.5185C26.0594 52.0298 26.4736 52.4441 26.9849 52.4441H31.0153C31.5265 52.4441 31.9408 52.0298 31.9408 51.5185C31.9408 51.0073 31.5264 50.5928 31.0153 50.5928Z" fill="#C11313"/>
<path d="M27.4574 29.5739V28.2317C27.4574 27.7204 27.0431 27.3062 26.5319 27.3062C26.0206 27.3062 25.6063 27.7204 25.6063 28.2317V29.5739C25.6063 30.0852 26.0206 30.4995 26.5319 30.4995C27.0431 30.4995 27.4574 30.0852 27.4574 29.5739Z" fill="#C11313"/>
<path d="M28.9999 34.5263C29.5112 34.5263 29.9255 34.1121 29.9255 33.6008V32.2585C29.9255 31.7473 29.5112 31.333 28.9999 31.333C28.4887 31.333 28.0744 31.7473 28.0744 32.2585V33.6008C28.0744 34.1121 28.4888 34.5263 28.9999 34.5263Z" fill="#C11313"/>
<path d="M31.468 27.3062C30.9567 27.3062 30.5425 27.7204 30.5425 28.2317V29.5739C30.5425 30.0852 30.9567 30.4995 31.468 30.4995C31.9793 30.4995 32.3935 30.0852 32.3935 29.5739V28.2317C32.3935 27.7205 31.9793 27.3062 31.468 27.3062Z" fill="#C11313"/>
</svg>
