<svg width="44" height="59" viewBox="0 0 44 59" fill="none" xmlns="http://www.w3.org/2000/svg">
<path d="M39.9111 25.5231C38.862 25.5231 38.0105 26.4026 38.0105 27.4864V41.2296C38.0105 41.7911 37.8148 54.9728 20.9058 54.9728C4.10894 54.9728 3.80486 41.7832 3.80105 41.2296V3.92663H38.0105V7.85325C38.0105 8.937 38.862 9.81657 39.9111 9.81657C40.9602 9.81657 41.8116 8.937 41.8116 7.85325V1.96331C41.8116 0.879564 40.9602 0 39.9111 0H1.90053C0.851436 0 0 0.879564 0 1.96331V41.2296C0 41.4063 0.239467 58.8994 20.9058 58.8994C41.5721 58.8994 41.8116 41.4063 41.8116 41.2296V27.4864C41.8116 26.4026 40.9602 25.5231 39.9111 25.5231Z" fill="#C11313"/>
<path d="M42.6859 13.6371C41.9675 12.8439 40.7644 12.8027 40.0004 13.5449L20.9875 31.9215L12.19 23.4164C11.4241 22.6782 10.223 22.7175 9.50456 23.5087C8.78806 24.2999 8.82797 25.5427 9.59389 26.2828L19.6914 36.0425C20.0563 36.3959 20.5238 36.5726 20.9894 36.5726C21.4551 36.5726 21.9226 36.3959 22.2875 36.0425L42.6003 16.4093C43.3644 15.6711 43.4043 14.4283 42.6859 13.6371Z" fill="#C11313"/>
</svg>
