<svg width="57" height="58" viewBox="0 0 57 58" fill="none" xmlns="http://www.w3.org/2000/svg">
<g clip-path="url(#clip0_92_367)">
<path d="M20.9225 28.4282C16.5644 28.4282 13.019 32.0358 13.019 36.4703C13.019 39.1031 14.2892 41.5731 16.4169 43.0778C16.5853 43.1969 16.7854 43.2606 16.9904 43.2606H24.8545C25.0594 43.2606 25.2595 43.1969 25.4279 43.0778C27.5557 41.5732 28.8258 39.1031 28.8258 36.4703C28.8259 32.0358 25.2805 28.4282 20.9225 28.4282ZM24.5259 41.2155H17.3188C15.8792 40.0818 15.0285 38.3303 15.0285 36.4701C15.0287 33.1634 17.6727 30.4731 20.9224 30.4731C24.1722 30.4731 26.816 33.1633 26.816 36.4701C26.8161 38.3304 25.9654 40.0818 24.5259 41.2155Z" fill="#C11313"/>
<path d="M10.8266 6.63037C10.8241 6.63037 10.8214 6.63037 10.8188 6.63037L6.43005 6.66447C5.87508 6.66889 5.42865 7.13006 5.43277 7.69477C5.43711 8.25687 5.88599 8.70954 6.43751 8.70954C6.44007 8.70954 6.44274 8.70954 6.4453 8.70954L10.8341 8.67545C11.3891 8.67103 11.8355 8.20986 11.8314 7.64515C11.8271 7.08293 11.3782 6.63037 10.8266 6.63037Z" fill="#C11313"/>
<path d="M2.90597 8.73734C3.46094 8.73734 3.91083 8.27956 3.91083 7.71486C3.91083 7.15016 3.46094 6.69238 2.90597 6.69238C2.35101 6.69238 1.90112 7.15016 1.90112 7.71486C1.90112 8.27956 2.35101 8.73734 2.90597 8.73734Z" fill="#C11313"/>
<path d="M1.90085 3.20756C2.45581 3.20756 2.9057 2.74978 2.9057 2.18508C2.9057 1.62038 2.45581 1.1626 1.90085 1.1626C1.34588 1.1626 0.895996 1.62038 0.895996 2.18508C0.895996 2.74978 1.34588 3.20756 1.90085 3.20756Z" fill="#C11313"/>
<path d="M1.44443 15.2613C1.99939 15.2613 2.44928 14.8035 2.44928 14.2388C2.44928 13.6741 1.99939 13.2163 1.44443 13.2163C0.889463 13.2163 0.439575 13.6741 0.439575 14.2388C0.439575 14.8035 0.889463 15.2613 1.44443 15.2613Z" fill="#C11313"/>
<path d="M13.0789 2.85218L10.9305 1.74021C10.4359 1.4843 9.83076 1.68459 9.57927 2.18812C9.32766 2.69143 9.52472 3.30712 10.0192 3.56302L12.1677 4.675C12.3136 4.75056 12.4691 4.78624 12.6225 4.78624C12.9886 4.78624 13.3416 4.58188 13.5191 4.22708C13.7707 3.72377 13.5735 3.10808 13.0789 2.85218Z" fill="#C11313"/>
<path d="M7.327 2.04496C7.88196 2.04496 8.33185 1.58718 8.33185 1.02248C8.33185 0.45778 7.88196 0 7.327 0C6.77203 0 6.32214 0.45778 6.32214 1.02248C6.32214 1.58718 6.77203 2.04496 7.327 2.04496Z" fill="#C11313"/>
<path d="M13.8884 10.538C13.5384 10.0997 12.9054 10.033 12.4747 10.3891L10.6038 11.9355C10.1731 12.2917 10.1075 12.9356 10.4576 13.3739C10.6562 13.6226 10.946 13.7517 11.2382 13.7517C11.4608 13.7517 11.685 13.6768 11.8713 13.5227L13.7422 11.9763C14.1728 11.6201 14.2383 10.9763 13.8884 10.538Z" fill="#C11313"/>
<path d="M8.49582 16.0176C9.05078 16.0176 9.50067 15.5598 9.50067 14.9951C9.50067 14.4304 9.05078 13.9727 8.49582 13.9727C7.94085 13.9727 7.49097 14.4304 7.49097 14.9951C7.49097 15.5598 7.94085 16.0176 8.49582 16.0176Z" fill="#C11313"/>
<path d="M20.9177 7.71488C21.4727 7.71488 21.9225 7.2571 21.9225 6.6924C21.9225 6.1277 21.4727 5.66992 20.9177 5.66992C20.3627 5.66992 19.9128 6.1277 19.9128 6.6924C19.9128 7.2571 20.3627 7.71488 20.9177 7.71488Z" fill="#C11313"/>
<path d="M55.7557 22.8299C53.791 18.6335 48.8373 16.8457 44.7132 18.8449C43.9779 19.2013 43.3197 19.6557 42.7426 20.1834L42.1863 18.9952C42.1624 18.9439 42.1696 18.8979 42.1799 18.8684C42.1902 18.8388 42.2131 18.7985 42.2635 18.774L46.2025 16.8646C46.2837 16.825 46.3812 16.8604 46.4199 16.943C46.6585 17.4528 47.2581 17.669 47.7594 17.4263C48.2605 17.1833 48.4732 16.5733 48.2344 16.0633C47.9848 15.5301 47.5459 15.1278 46.9988 14.9303C46.4518 14.7329 45.862 14.7642 45.3379 15.0181L44.0889 15.6236C42.1398 12.2841 39.3488 9.54618 35.964 7.67148C32.5969 5.80664 28.8445 4.9116 25.0483 5.05195V3.80359C25.0483 2.65752 24.1321 1.7251 23.0059 1.7251L18.8282 1.7251C17.7018 1.7251 16.7857 2.65752 16.7857 3.80359V13.7608H14.7536C13.4608 13.7608 12.4088 14.8312 12.4088 16.1468V19.9691C6.07157 23.1692 1.70471 29.8234 1.70471 37.497C1.70471 43.2935 4.23744 48.7657 8.55732 52.4651C7.89747 53.0431 7.47843 53.8981 7.47843 54.8514C7.47843 56.5878 8.8667 58.0004 10.5731 58.0004L31.261 58.0004C32.9674 58.0004 34.3557 56.5878 34.3557 54.8514C34.3557 53.9008 33.939 53.0479 33.2825 52.4701C37.6058 48.7706 40.1407 43.296 40.1407 37.4971C40.1407 26.7144 31.5195 17.9419 20.9227 17.9419C18.6408 17.9419 16.451 18.3496 14.4187 19.0956V16.1468C14.4187 15.9589 14.5689 15.8059 14.7536 15.8059H17.7904L24.0432 15.8059H27.0802C27.2647 15.8059 27.4152 15.9588 27.4152 16.1468C27.4152 16.7115 27.865 17.1692 28.42 17.1692C28.975 17.1692 29.4249 16.7115 29.4249 16.1468C29.4249 14.8312 28.3729 13.7608 27.0801 13.7608H25.048V7.09793C28.5087 6.95667 31.9325 7.76743 35.003 9.46802C38.0143 11.1356 40.5055 13.5574 42.2654 16.5078L41.3988 16.9278C40.317 17.4522 39.8562 18.7742 40.3716 19.875L41.3152 21.8906C39.8164 24.2653 39.5185 27.3516 40.7965 30.0814C42.2148 33.1113 45.1914 34.8854 48.2888 34.8854C49.4816 34.8854 50.6924 34.6222 51.8391 34.0666C55.9636 32.067 57.7205 27.0265 55.7557 22.8299ZM20.9227 19.9868C30.4111 19.9867 38.1307 27.8416 38.1307 37.4967C38.1307 43.1701 35.4196 48.4957 30.8715 51.7818C30.5099 51.9365 30.2559 52.3004 30.2559 52.7246C30.2559 53.2893 30.7058 53.7471 31.2608 53.7471C31.8591 53.7471 32.3457 54.2423 32.3457 54.851C32.3457 55.4598 31.8591 55.955 31.2608 55.955L10.573 55.955C9.97475 55.955 9.48814 55.4598 9.48814 54.851C9.48814 54.2423 9.97475 53.7471 10.573 53.7471H23.411H26.3138C26.8687 53.7471 27.3186 53.2893 27.3186 52.7246C27.3186 52.1599 26.8687 51.7022 26.3138 51.7022H23.4111H10.8614C6.38018 48.4101 3.71453 43.1239 3.71453 37.4969C3.71453 27.8419 11.4342 19.9868 20.9227 19.9868ZM23.0384 6.12065C23.0384 6.12111 23.0384 6.12156 23.0384 6.12201V13.7605H18.7953V3.80359C18.7953 3.78524 18.8099 3.77017 18.828 3.77017L23.0058 3.77017C23.0238 3.77017 23.0385 3.78513 23.0385 3.80359L23.0384 6.12065ZM54.1903 28.5897C53.6301 30.1971 52.4882 31.4864 50.9751 32.2199C50.1065 32.6408 49.1897 32.8402 48.2861 32.8401C45.9402 32.84 43.6856 31.4962 42.6113 29.2015C41.8904 27.6618 41.8019 25.9285 42.3622 24.3212C42.5826 23.6889 42.8941 23.1071 43.2814 22.5877C43.2825 22.5863 43.2836 22.5849 43.2847 22.5833C43.882 21.7841 44.6611 21.135 45.5775 20.6908C46.4461 20.2699 47.3629 20.0706 48.2664 20.0706C50.6122 20.0706 52.867 21.4145 53.9413 23.7091C54.662 25.2493 54.7507 26.9824 54.1903 28.5897Z" fill="#C11313"/>
</g>
<defs>
<clipPath id="clip0_92_367">
<rect width="57" height="58" fill="white"/>
</clipPath>
</defs>
</svg>
