<svg width="188" height="187" viewBox="0 0 188 187" fill="none" xmlns="http://www.w3.org/2000/svg">
<path d="M12.6 26.9999H174.4V43.7999H12.6V26.9999ZM22.2 57.5999H165.8V73.5999H22.2V57.5999ZM4.39999 87.5999H182.2V104.6H4.39999V87.5999ZM2.99999 120.4H184.4V137.2H2.99999V120.4ZM83.2 37.1999H102.8V100.6H83.2V37.1999ZM37.4 6.9999L54.2 0.199899C57.5333 3.79989 60.7333 7.86656 63.8 12.3999C66.8667 16.7999 69.1333 20.7999 70.6 24.3999L52.8 32.1999C51.6 28.5999 49.5333 24.3999 46.6 19.5999C43.8 14.7999 40.7333 10.5999 37.4 6.9999ZM129.4 -0.000110149L149.4 5.59989C146.333 10.2666 143.133 14.7332 139.8 18.9999C136.467 23.2666 133.4 26.9999 130.6 30.1999L113.6 24.7999C115.467 22.5332 117.333 19.9999 119.2 17.1999C121.2 14.2666 123.133 11.3332 125 8.39989C126.867 5.33322 128.333 2.53322 129.4 -0.000110149ZM81.6 101.6H101.6C100.667 110.8 99.1333 119.267 97 127C95 134.6 92 141.533 88 147.8C84.1333 154.067 78.8667 159.667 72.2 164.6C65.6667 169.4 57.2667 173.6 47 177.2C36.7333 180.8 24.2667 183.8 9.59999 186.2C9.19999 184.467 8.46666 182.533 7.39999 180.4C6.33333 178.4 5.13333 176.333 3.79999 174.2C2.46666 172.2 1.19999 170.533 -6.13928e-06 169.2C13.6 167.333 25 165 34.2 162.2C43.5333 159.4 51.1333 156.067 57 152.2C62.8667 148.333 67.4 143.933 70.6 139C73.9333 133.933 76.4 128.333 78 122.2C79.6 115.933 80.8 109.067 81.6 101.6ZM106.6 125.4C112.2 138.867 121.667 149.067 135 156C148.467 162.933 166.133 167.267 188 169C186.667 170.333 185.2 172.067 183.6 174.2C182.133 176.333 180.733 178.467 179.4 180.6C178.2 182.733 177.2 184.733 176.4 186.6C160.933 184.6 147.533 181.267 136.2 176.6C124.867 172.067 115.333 165.867 107.6 158C100 150.133 93.8 140.333 89 128.6L106.6 125.4Z" fill="#8B8A8A" fill-opacity="0.05"/>
</svg>
