<svg width="592" height="186" viewBox="0 0 592 186" fill="none" xmlns="http://www.w3.org/2000/svg">
<path d="M407.6 50.2002H465.6V69.4002H407.6V50.2002ZM487.4 0.200195H507.4V160.2C507.4 166.334 506.6 171 505 174.2C503.4 177.4 500.733 179.867 497 181.6C493.133 183.334 488.067 184.467 481.8 185C475.667 185.534 467.933 185.8 458.6 185.8C458.333 183.8 457.8 181.534 457 179C456.2 176.467 455.267 173.934 454.2 171.4C453.267 168.867 452.267 166.734 451.2 165C458.133 165.134 464.467 165.267 470.2 165.4C476.067 165.4 480 165.334 482 165.2C483.867 165.2 485.2 164.8 486 164C486.933 163.2 487.4 161.934 487.4 160.2V0.200195ZM459.2 50.2002H463.2L466.6 49.6002L479.4 54.4002C476.2 72.1335 471.533 88.2669 465.4 102.8C459.4 117.334 452.333 130 444.2 140.8C436.067 151.6 427.133 160.4 417.4 167.2C416.333 165.734 414.867 164 413 162C411.133 160 409.2 158.134 407.2 156.4C405.2 154.534 403.4 153.134 401.8 152.2C411.267 146.067 419.8 138.267 427.4 128.8C435.133 119.334 441.667 108.334 447 95.8002C452.467 83.2669 456.533 69.5335 459.2 54.6002V50.2002ZM506.2 31.4002C509.533 44.7335 513.733 57.6669 518.8 70.2002C524 82.6002 530.133 94.1335 537.2 104.8C544.267 115.467 552.333 124.934 561.4 133.2C570.6 141.467 580.8 148.134 592 153.2C590.4 154.534 588.667 156.2 586.8 158.2C584.933 160.2 583.133 162.334 581.4 164.6C579.8 166.734 578.4 168.734 577.2 170.6C562 162.6 548.867 151.8 537.8 138.2C526.733 124.6 517.4 109 509.8 91.4002C502.333 73.8002 496.133 54.9335 491.2 34.8002L506.2 31.4002ZM567.4 32.0002L585 44.4002C579.533 50.4002 573.533 56.6002 567 63.0002C560.467 69.4002 553.933 75.5335 547.4 81.4002C540.867 87.2669 534.733 92.3335 529 96.6002L515.4 86.0002C521.133 81.4669 527.133 76.1335 533.4 70.0002C539.8 63.7335 546 57.3335 552 50.8002C558 44.1335 563.133 37.8669 567.4 32.0002Z" fill="url(#paint0_linear_66_47)" fill-opacity="0.05"/>
<path d="M335.8 50.4H353.8V170H335.8V50.4ZM328.4 0H347.4V34.6H328.4V0ZM310 90.2H383.2V107.4H310V90.2ZM295.8 27.6H388.8V45.4H295.8V27.6ZM299.8 161.4H389.6V178.6H299.8V161.4ZM286 27.6H304V83.6C304 91.0667 303.667 99.2667 303 108.2C302.333 117.133 301.133 126.267 299.4 135.6C297.667 144.8 295.133 153.733 291.8 162.4C288.467 171.067 284.067 178.933 278.6 186C277.667 184.667 276.267 183.2 274.4 181.6C272.667 180.133 270.867 178.6 269 177C267.267 175.533 265.733 174.467 264.4 173.8C269.333 167.267 273.2 160.2 276 152.6C278.933 145 281.067 137.2 282.4 129.2C283.867 121.2 284.8 113.333 285.2 105.6C285.733 97.7333 286 90.3333 286 83.4V27.6ZM234.8 0H252.2V185.4H234.8V0ZM205.2 68.6H278.4V86.2H205.2V68.6ZM233.8 76.4L246 81.4C243.6 90.3333 240.6 99.7333 237 109.6C233.533 119.467 229.6 128.867 225.2 137.8C220.933 146.733 216.4 154.267 211.6 160.4C210.667 157.6 209.267 154.4 207.4 150.8C205.533 147.067 203.8 143.933 202.2 141.4C206.467 136.333 210.6 130.133 214.6 122.8C218.733 115.467 222.467 107.733 225.8 99.6C229.133 91.3333 231.8 83.6 233.8 76.4ZM250.6 91.8C251.933 93 254 95.1333 256.8 98.2C259.733 101.267 262.733 104.6 265.8 108.2C269 111.667 271.933 114.933 274.6 118C277.267 121.067 279.133 123.2 280.2 124.4L268.8 139.6C267.467 137.067 265.6 134 263.2 130.4C260.8 126.8 258.2 123.067 255.4 119.2C252.733 115.333 250.133 111.733 247.6 108.4C245.067 104.933 243 102.2 241.4 100.2L250.6 91.8ZM205.8 16.8L219.4 13.4C222.2 20.4667 224.533 28.0667 226.4 36.2C228.267 44.3333 229.467 51.4 230 57.4L215.4 61C215.267 57 214.733 52.4667 213.8 47.4C213 42.3333 211.867 37.1333 210.4 31.8C209.067 26.4667 207.533 21.4667 205.8 16.8ZM266.4 12.2L283 16.2C281.267 21.1333 279.467 26.3333 277.6 31.8C275.733 37.2667 273.8 42.5333 271.8 47.6C269.933 52.6667 268.133 57.1333 266.4 61L253.8 57.2C255.4 53.2 257 48.5333 258.6 43.2C260.2 37.8667 261.667 32.4667 263 27C264.333 21.5333 265.467 16.6 266.4 12.2Z" fill="url(#paint1_linear_66_47)" fill-opacity="0.05"/>
<path d="M93.4 4.9998H112.4V151.6C112.4 155.466 112.667 158.4 113.2 160.4C113.867 162.266 115.067 163.533 116.8 164.2C118.667 164.866 121.333 165.2 124.8 165.2C126.133 165.2 128.333 165.2 131.4 165.2C134.6 165.2 138.067 165.2 141.8 165.2C145.667 165.2 149.267 165.2 152.6 165.2C155.933 165.2 158.333 165.2 159.8 165.2C163.267 165.2 165.867 164.2 167.6 162.2C169.333 160.2 170.6 156.6 171.4 151.4C172.2 146.2 172.867 138.8 173.4 129.2C175.8 130.933 178.667 132.6 182 134.2C185.467 135.666 188.533 136.733 191.2 137.4C190.267 148.6 188.867 157.533 187 164.2C185.267 170.866 182.333 175.666 178.2 178.6C174.2 181.533 168.533 183 161.2 183C160.133 183 158.267 183 155.6 183C153.067 183 150.133 183 146.8 183C143.6 183 140.333 183 137 183C133.667 183 130.733 183 128.2 183C125.667 183 123.933 183 123 183C115.4 183 109.4 182.066 105 180.2C100.733 178.333 97.7333 175.066 96 170.4C94.2667 165.866 93.4 159.466 93.4 151.2V4.9998ZM168.4 38.1998L182.2 54.5998C175.133 60.0665 167.333 65.4665 158.8 70.7998C150.267 75.9998 141.467 81.0665 132.4 85.9998C123.467 90.7998 114.6 95.3998 105.8 99.7998C105.133 97.5331 104 94.9998 102.4 92.1998C100.8 89.2665 99.3333 86.7998 98 84.7998C106.4 80.5331 114.867 75.7998 123.4 70.5998C132.067 65.2665 140.267 59.8665 148 54.3998C155.867 48.7998 162.667 43.3998 168.4 38.1998ZM56.8 2.7998L75.4 8.99981C70.4667 20.7331 64.5333 32.3331 57.6 43.7998C50.8 55.2665 43.4 65.9998 35.4 75.9998C27.5333 85.9998 19.4667 94.7998 11.2 102.4C10.5333 100.8 9.53333 98.7998 8.2 96.3998C6.86667 93.8665 5.46667 91.3998 4 88.9998C2.53333 86.4665 1.2 84.3998 0 82.7998C7.46667 76.5331 14.7333 69.1998 21.8 60.7998C28.8667 52.2665 35.4 43.0665 41.4 33.1998C47.4 23.3331 52.5333 13.1998 56.8 2.7998ZM34.6 56.9998L53.4 38.1998L53.6 38.5998V185.2H34.6V56.9998Z" fill="url(#paint2_linear_66_47)" fill-opacity="0.05"/>
<defs>
<linearGradient id="paint0_linear_66_47" x1="196" y1="-19" x2="193" y2="231.5" gradientUnits="userSpaceOnUse">
<stop offset="0.162509" stop-color="#8B8A8A" stop-opacity="0.25"/>
<stop offset="1" stop-color="#252424"/>
</linearGradient>
<linearGradient id="paint1_linear_66_47" x1="196" y1="-19" x2="193" y2="231.5" gradientUnits="userSpaceOnUse">
<stop offset="0.162509" stop-color="#8B8A8A" stop-opacity="0.25"/>
<stop offset="1" stop-color="#252424"/>
</linearGradient>
<linearGradient id="paint2_linear_66_47" x1="196" y1="-19" x2="193" y2="231.5" gradientUnits="userSpaceOnUse">
<stop offset="0.162509" stop-color="#8B8A8A" stop-opacity="0.25"/>
<stop offset="1" stop-color="#252424"/>
</linearGradient>
</defs>
</svg>
