<svg width="193" height="224" viewBox="0 0 193 224" fill="none" xmlns="http://www.w3.org/2000/svg">
<path d="M114 -94.0994H133V21.9006H114V-94.0994ZM58.2 -66.6994H187.4V-49.4994H58.2V-66.6994ZM137.4 -59.2994C141.267 -51.6994 146.2 -44.1661 152.2 -36.6994C158.2 -29.3661 164.733 -22.5661 171.8 -16.2994C178.867 -10.1661 185.933 -5.09941 193 -1.09941C191.533 0.100586 189.933 1.56725 188.2 3.30059C186.467 5.03392 184.867 6.83392 183.4 8.70059C181.933 10.7006 180.667 12.4339 179.6 13.9006C172.4 9.10059 165.267 3.10059 158.2 -4.09941C151.133 -11.4327 144.6 -19.3661 138.6 -27.8994C132.6 -36.4328 127.4 -45.1661 123 -54.0994L137.4 -59.2994ZM110.6 -60.8994L125.6 -55.4994C121.067 -46.2994 115.6 -37.2994 109.2 -28.4994C102.8 -19.6994 95.8 -11.6994 88.2 -4.49941C80.6 2.70059 72.8 8.70059 64.8 13.5006C63.8667 11.9006 62.6 10.1673 61 8.30059C59.5333 6.56725 58 4.83392 56.4 3.10059C54.8 1.23392 53.2667 -0.299414 51.8 -1.49941C59.5333 -5.36608 67.1333 -10.4327 74.6 -16.6994C82.2 -23.0994 89.0667 -30.0994 95.2 -37.6994C101.467 -45.2994 106.6 -53.0328 110.6 -60.8994ZM90.2 -137.899V-105.499H158V-137.899H90.2ZM72.4 -154.499H176.8V-88.4994H72.4V-154.499ZM49.2 -163.299L66.8 -157.499C62.4 -146.299 57.2 -135.099 51.2 -123.899C45.2 -112.833 38.7333 -102.433 31.8 -92.6994C24.8667 -82.9661 17.7333 -74.2994 10.4 -66.6994C9.73334 -68.2994 8.8 -70.2994 7.6 -72.6994C6.4 -75.0994 5.06667 -77.4994 3.6 -79.8994C2.26667 -82.2994 1.06667 -84.2994 3.36766e-06 -85.8994C6.53334 -92.1661 12.8 -99.3661 18.8 -107.499C24.9333 -115.766 30.6 -124.633 35.8 -134.099C41 -143.699 45.4667 -153.433 49.2 -163.299ZM29 -110.099L47 -127.899L47.2 -127.699V21.3006H29V-110.099ZM86.2 97.5006V114.301H156.4V97.5006H86.2ZM86.2 66.3006V82.9006H156.4V66.3006H86.2ZM68.4 50.7006H175V130.101H68.4V50.7006ZM48.8 205.501H188.6V222.101H48.8V205.501ZM58.8 151.301L74.2 145.901C76.8667 150.567 79.4 155.701 81.8 161.301C84.2 166.767 86.2667 172.167 88 177.501C89.7333 182.701 91 187.434 91.8 191.701L75.4 197.701C74.7333 193.434 73.5333 188.634 71.8 183.301C70.2 177.834 68.2667 172.301 66 166.701C63.8667 161.101 61.4667 155.967 58.8 151.301ZM167.8 144.901L186.2 150.301C183.933 155.634 181.467 161.167 178.8 166.901C176.133 172.634 173.467 178.167 170.8 183.501C168.267 188.701 165.867 193.301 163.6 197.301L149.4 192.101C151.667 187.967 153.933 183.167 156.2 177.701C158.6 172.234 160.8 166.634 162.8 160.901C164.933 155.034 166.6 149.701 167.8 144.901ZM95.4 135.901H112.8V214.901H95.4V135.901ZM129.6 135.901H147.2V214.901H129.6V135.901ZM13.8 58.3006L24.2 44.5006C28.3333 46.1006 32.6 48.1006 37 50.5006C41.5333 52.7672 45.8 55.1672 49.8 57.7006C53.8 60.1006 57.0667 62.4339 59.6 64.7006L48.6 80.1006C46.2 77.7006 43 75.2339 39 72.7006C35.1333 70.0339 31 67.4339 26.6 64.9006C22.2 62.3672 17.9333 60.1672 13.8 58.3006ZM2.6 110.301L13.2 96.5006C17.3333 98.2339 21.6667 100.301 26.2 102.701C30.7333 104.967 35.0667 107.367 39.2 109.901C43.3333 112.434 46.6667 114.901 49.2 117.301L38.2 132.501C35.8 130.101 32.6 127.567 28.6 124.901C24.6 122.234 20.2667 119.634 15.6 117.101C11.0667 114.434 6.73334 112.167 2.6 110.301ZM7.4 212.701C10.2 207.501 13.3333 201.367 16.8 194.301C20.2667 187.234 23.7333 179.767 27.2 171.901C30.8 164.034 34.0667 156.301 37 148.701L51.8 159.701C49.2667 166.634 46.4 173.834 43.2 181.301C40.1333 188.767 36.9333 196.101 33.6 203.301C30.4 210.501 27.2667 217.234 24.2 223.501L7.4 212.701Z" fill="url(#paint0_linear_115_177)" fill-opacity="0.15"/>
<defs>
<linearGradient id="paint0_linear_115_177" x1="140.8" y1="56.1006" x2="17.2438" y2="43.9697" gradientUnits="userSpaceOnUse">
<stop stop-color="#FFB2B2"/>
<stop offset="1" stop-color="#C09999" stop-opacity="0.41"/>
</linearGradient>
</defs>
</svg>
