<svg width="761" height="171" viewBox="0 0 761 171" fill="none" xmlns="http://www.w3.org/2000/svg">
<path d="M-59 25.6002C-59.8 26.5335 -60.8 28.0669 -62 30.2002C-63.2 32.3335 -64.1333 34.2669 -64.8 36.0002C-67.6 42.4002 -71.0667 49.5335 -75.2 57.4002C-79.2 65.2669 -83.8 73.1335 -89 81.0002C-94.0667 88.7335 -99.4 95.8002 -105 102.2C-112.333 110.6 -120.467 118.8 -129.4 126.8C-138.2 134.8 -147.533 142.2 -157.4 149C-167.267 155.667 -177.467 161.467 -188 166.4L-204.2 149.4C-193.4 145.134 -183 139.867 -173 133.6C-162.867 127.334 -153.467 120.467 -144.8 113C-136.133 105.534 -128.533 98.1335 -122 90.8002C-117.467 85.7335 -113.067 80.1335 -108.8 74.0002C-104.533 67.7335 -100.733 61.4669 -97.4 55.2002C-94.0667 48.9335 -91.6667 43.2002 -90.2 38.0002C-91.4 38.0002 -93.8667 38.0002 -97.6 38.0002C-101.333 38.0002 -105.8 38.0002 -111 38.0002C-116.067 38.0002 -121.4 38.0002 -127 38.0002C-132.467 38.0002 -137.8 38.0002 -143 38.0002C-148.067 38.0002 -152.467 38.0002 -156.2 38.0002C-159.933 38.0002 -162.4 38.0002 -163.6 38.0002C-166.133 38.0002 -168.933 38.1335 -172 38.4002C-174.933 38.5335 -177.667 38.7335 -180.2 39.0002C-182.6 39.1335 -184.333 39.2002 -185.4 39.2002V16.6002C-184.067 16.7335 -182.067 16.9335 -179.4 17.2002C-176.733 17.3335 -173.933 17.5335 -171 17.8002C-168.067 17.9335 -165.6 18.0002 -163.6 18.0002C-162.133 18.0002 -159.533 18.0002 -155.8 18.0002C-151.933 18.0002 -147.467 18.0002 -142.4 18.0002C-137.2 18.0002 -131.8 18.0002 -126.2 18.0002C-120.6 18.0002 -115.267 18.0002 -110.2 18.0002C-105.133 18.0002 -100.733 18.0002 -97 18.0002C-93.2667 18.0002 -90.7333 18.0002 -89.4 18.0002C-85.6667 18.0002 -82.2667 17.8002 -79.2 17.4002C-76.1333 17.0002 -73.7333 16.5335 -72 16.0002L-59 25.6002ZM-102.4 89.0002C-97.0667 93.4002 -91.4667 98.3335 -85.6 103.8C-79.7333 109.267 -74 114.934 -68.4 120.8C-62.8 126.534 -57.6 132.067 -52.8 137.4C-47.8667 142.734 -43.7333 147.467 -40.4 151.6L-58 167.2C-62.9333 160.534 -68.6 153.534 -75 146.2C-81.4 138.867 -88.2 131.534 -95.4 124.2C-102.6 116.734 -109.8 109.8 -117 103.4L-102.4 89.0002ZM54 18.2002C53.4667 15.5335 52.8667 13.0669 52.2 10.8002C51.5333 8.40019 50.8 6.06685 50 3.80018L72.4 0.200193C72.6667 2.06686 72.9333 4.40019 73.2 7.20019C73.6 9.86685 74.0667 12.3335 74.6 14.6002C74.8667 16.2002 75.4 19.4669 76.2 24.4002C77.1333 29.3335 78.2667 35.4669 79.6 42.8002C81.0667 50.1335 82.6 58.0002 84.2 66.4002C85.9333 74.8002 87.6667 83.3335 89.4 92.0002C91.1333 100.534 92.7333 108.6 94.2 116.2C95.6667 123.8 96.9333 130.4 98 136C99.2 141.467 100 145.4 100.4 147.8C101.067 150.6 101.867 153.667 102.8 157C103.733 160.334 104.667 163.534 105.6 166.6L82.6 170.8C82.0667 167.2 81.6 163.734 81.2 160.4C80.9333 157.2 80.4667 154.134 79.8 151.2C79.4 149.067 78.6667 145.334 77.6 140C76.6667 134.534 75.4667 128.067 74 120.6C72.6667 113.134 71.1333 105.2 69.4 96.8002C67.6667 88.2669 66 79.8002 64.4 71.4002C62.8 62.8669 61.2667 54.9335 59.8 47.6002C58.3333 40.2669 57.0667 34.0002 56 28.8002C55.0667 23.6002 54.4 20.0669 54 18.2002ZM-1.6 45.6002C1.06667 45.3335 3.86667 45.1335 6.8 45.0002C9.73334 44.7335 12.7333 44.4669 15.8 44.2002C18.7333 43.8002 22.9333 43.2669 28.4 42.6002C33.8667 41.8002 40 40.8669 46.8 39.8002C53.7333 38.7335 60.8667 37.6669 68.2 36.6002C75.6667 35.4002 82.8667 34.2002 89.8 33.0002C96.7333 31.8002 102.933 30.7335 108.4 29.8002C114 28.8669 118.333 28.1335 121.4 27.6002C124.467 26.9335 127.467 26.2669 130.4 25.6002C133.333 24.9335 135.8 24.3335 137.8 23.8002L141.6 44.8002C139.867 44.9335 137.467 45.2669 134.4 45.8002C131.333 46.2002 128.4 46.6002 125.6 47.0002C122.133 47.5335 117.467 48.2669 111.6 49.2002C105.867 50.0002 99.4667 51.0002 92.4 52.2002C85.4667 53.2669 78.2667 54.4002 70.8 55.6002C63.4667 56.8002 56.4 57.9335 49.6 59.0002C42.9333 60.0669 36.9333 61.0669 31.6 62.0002C26.4 62.8002 22.4667 63.4669 19.8 64.0002C16.8667 64.5335 14.0667 65.0669 11.4 65.6002C8.73333 66.1335 5.8 66.8002 2.6 67.6002L-1.6 45.6002ZM-2 103.8C0.533334 103.667 3.6 103.4 7.2 103C10.9333 102.6 14.2 102.2 17 101.8C20.6 101.267 25.4 100.534 31.4 99.6002C37.5333 98.6669 44.4 97.6002 52 96.4002C59.6 95.2002 67.4667 93.9335 75.6 92.6002C83.7333 91.2669 91.6 89.9335 99.2 88.6002C106.933 87.2669 114 86.0669 120.4 85.0002C126.8 83.9335 131.933 83.0669 135.8 82.4002C139.667 81.6002 143.133 80.8669 146.2 80.2002C149.4 79.5335 152.2 78.8002 154.6 78.0002L158.8 99.0002C156.533 99.1335 153.667 99.5335 150.2 100.2C146.867 100.734 143.267 101.334 139.4 102C135 102.667 129.533 103.534 123 104.6C116.6 105.534 109.533 106.667 101.8 108C94.0667 109.2 86.2 110.467 78.2 111.8C70.2 113 62.4667 114.267 55 115.6C47.6667 116.8 41.0667 117.934 35.2 119C29.3333 119.934 24.6667 120.734 21.2 121.4C17.2 122.067 13.6 122.734 10.4 123.4C7.33334 123.934 4.73334 124.534 2.6 125.2L-2 103.8ZM218.545 11.2002C222.145 13.6002 226.279 16.6002 230.945 20.2002C235.612 23.6669 240.345 27.4002 245.145 31.4002C250.079 35.4002 254.745 39.2669 259.145 43.0002C263.545 46.7335 267.079 50.0669 269.745 53.0002L253.945 69.2002C251.412 66.5335 248.079 63.3335 243.945 59.6002C239.812 55.7335 235.345 51.8002 230.545 47.8002C225.879 43.6669 221.212 39.8002 216.545 36.2002C211.879 32.4669 207.679 29.3335 203.945 26.8002L218.545 11.2002ZM197.945 145C209.145 143.267 219.479 141 228.945 138.2C238.412 135.267 247.079 132 254.945 128.4C262.945 124.667 270.145 120.867 276.545 117C287.212 110.467 297.012 102.934 305.945 94.4002C315.012 85.8669 322.945 77.0669 329.745 68.0002C336.545 58.9335 341.945 50.1335 345.945 41.6002L358.145 63.4002C353.345 72.0669 347.412 80.7335 340.345 89.4002C333.412 98.0669 325.545 106.4 316.745 114.4C307.945 122.267 298.345 129.4 287.945 135.8C281.279 139.934 273.945 143.934 265.945 147.8C258.079 151.667 249.545 155.134 240.345 158.2C231.279 161.267 221.612 163.734 211.345 165.6L197.945 145ZM457.545 4.60018C456.612 7.00018 455.612 9.60019 454.545 12.4002C453.612 15.2002 452.679 17.6669 451.745 19.8002C450.812 22.8669 449.545 26.3335 447.945 30.2002C446.479 34.0669 444.879 38.0002 443.145 42.0002C441.545 45.8669 439.812 49.6002 437.945 53.2002C435.279 58.4002 432.012 63.9335 428.145 69.8002C424.279 75.5335 420.145 81.0669 415.745 86.4002C411.479 91.6002 407.212 96.0669 402.945 99.8002L383.145 87.8002C386.745 85.1335 390.212 82.0669 393.545 78.6002C397.012 75.0002 400.279 71.2669 403.345 67.4002C406.412 63.4002 409.212 59.5335 411.745 55.8002C414.279 52.0669 416.479 48.6669 418.345 45.6002C421.012 40.6669 423.279 35.8002 425.145 31.0002C427.012 26.0669 428.545 21.6669 429.745 17.8002C430.679 14.8669 431.412 11.8669 431.945 8.80019C432.612 5.73352 433.012 2.80019 433.145 0.000183582L457.545 4.60018ZM429.745 37.4002C431.745 37.4002 434.879 37.4002 439.145 37.4002C443.545 37.4002 448.745 37.4002 454.745 37.4002C460.745 37.4002 467.079 37.4002 473.745 37.4002C480.412 37.4002 487.012 37.4002 493.545 37.4002C500.212 37.4002 506.412 37.4002 512.145 37.4002C518.012 37.4002 523.012 37.4002 527.145 37.4002C531.412 37.4002 534.345 37.4002 535.945 37.4002C538.479 37.4002 541.612 37.3335 545.345 37.2002C549.079 37.0669 552.479 36.7335 555.545 36.2002V57.8002C552.212 57.5335 548.679 57.4002 544.945 57.4002C541.212 57.2669 538.212 57.2002 535.945 57.2002C533.945 57.2002 530.279 57.2002 524.945 57.2002C519.745 57.2002 513.545 57.2002 506.345 57.2002C499.145 57.2002 491.479 57.2002 483.345 57.2002C475.345 57.2002 467.612 57.2002 460.145 57.2002C452.679 57.2002 446.012 57.2002 440.145 57.2002C434.412 57.2002 430.212 57.2002 427.545 57.2002L429.745 37.4002ZM505.145 48.6002C504.745 63.6669 503.079 77.4002 500.145 89.8002C497.212 102.067 493.145 113.134 487.945 123C482.879 132.734 476.679 141.467 469.345 149.2C462.012 156.8 453.679 163.534 444.345 169.4L423.145 155C426.212 153.667 429.279 152.134 432.345 150.4C435.545 148.667 438.279 146.867 440.545 145C445.879 140.867 451.012 136 455.945 130.4C461.012 124.667 465.545 117.934 469.545 110.2C473.679 102.467 476.945 93.5335 479.345 83.4002C481.879 73.2669 483.279 61.6002 483.545 48.4002L505.145 48.6002ZM760.345 25.0002C759.412 26.0669 758.279 27.4669 756.945 29.2002C755.745 30.8002 754.679 32.2002 753.745 33.4002C750.945 38.3335 747.012 44.1335 741.945 50.8002C737.012 57.4669 731.345 64.2002 724.945 71.0002C718.679 77.6669 711.945 83.5335 704.745 88.6002L688.145 75.2002C692.545 72.6669 696.812 69.6669 700.945 66.2002C705.212 62.6002 709.145 58.8669 712.745 55.0002C716.479 51.1335 719.745 47.4002 722.545 43.8002C725.345 40.0669 727.479 36.7335 728.945 33.8002C727.079 33.8002 723.879 33.8002 719.345 33.8002C714.945 33.8002 709.612 33.8002 703.345 33.8002C697.212 33.8002 690.612 33.8002 683.545 33.8002C676.612 33.8002 669.679 33.8002 662.745 33.8002C655.812 33.8002 649.345 33.8002 643.345 33.8002C637.345 33.8002 632.212 33.8002 627.945 33.8002C623.679 33.8002 620.812 33.8002 619.345 33.8002C615.345 33.8002 611.479 33.9335 607.745 34.2002C604.012 34.3335 600.012 34.6002 595.745 35.0002V12.8002C599.479 13.2002 603.345 13.6002 607.345 14.0002C611.345 14.4002 615.345 14.6002 619.345 14.6002C620.812 14.6002 623.745 14.6002 628.145 14.6002C632.545 14.6002 637.812 14.6002 643.945 14.6002C650.212 14.6002 656.945 14.6002 664.145 14.6002C671.345 14.6002 678.545 14.6002 685.745 14.6002C692.945 14.6002 699.679 14.6002 705.945 14.6002C712.212 14.6002 717.545 14.6002 721.945 14.6002C726.345 14.6002 729.412 14.6002 731.145 14.6002C732.612 14.6002 734.412 14.6002 736.545 14.6002C738.812 14.4669 740.945 14.2669 742.945 14.0002C745.079 13.7335 746.679 13.4669 747.745 13.2002L760.345 25.0002ZM679.545 51.6002C679.545 62.0002 679.279 71.8669 678.745 81.2002C678.212 90.5335 676.945 99.4002 674.945 107.8C673.079 116.067 670.145 123.867 666.145 131.2C662.145 138.4 656.745 145.2 649.945 151.6C643.145 158 634.479 163.867 623.945 169.2L605.545 154.2C608.479 153.267 611.612 152 614.945 150.4C618.412 148.667 621.679 146.667 624.745 144.4C631.945 139.734 637.745 134.667 642.145 129.2C646.545 123.734 649.812 117.867 651.945 111.6C654.212 105.2 655.745 98.3335 656.545 91.0002C657.479 83.6669 657.945 75.8669 657.945 67.6002C657.945 64.9335 657.879 62.3335 657.745 59.8002C657.612 57.2669 657.279 54.5335 656.745 51.6002H679.545Z" fill="url(#paint0_linear_115_98)" fill-opacity="0.05"/>
<defs>
<linearGradient id="paint0_linear_115_98" x1="1180.29" y1="137.576" x2="943.953" y2="692.967" gradientUnits="userSpaceOnUse">
<stop offset="0.0151163" stop-color="#8B8A8A" stop-opacity="0.21"/>
<stop offset="1" stop-color="#252424"/>
</linearGradient>
</defs>
</svg>
