<svg width="193" height="185" viewBox="0 0 193 185" fill="none" xmlns="http://www.w3.org/2000/svg">
<path d="M7.2 18.1999H94.6V33.9999H7.2V18.1999ZM16.2 60.1999H95.6V75.9999H16.2V60.1999ZM67.4 32.9999L84.4 36.3999C82.6667 40.7999 81.0667 45.1332 79.6 49.3999C78.2667 53.6666 76.9333 57.3999 75.6 60.5999L60.2 57.1999C61.5333 53.7332 62.8667 49.7332 64.2 45.1999C65.5333 40.5332 66.6 36.4666 67.4 32.9999ZM42.4 -0.000100136H60.8V27.9999H42.4V-0.000100136ZM69 78.1999L83.4 84.1999C79.6667 87.7999 75.3333 91.1999 70.4 94.3999C65.6 97.4666 60.5333 100.333 55.2 103C49.8667 105.533 44.6667 107.733 39.6 109.6C38.2667 107.867 36.6 106 34.6 104C32.6 102 30.6 100.267 28.6 98.7999C33.4 97.3332 38.3333 95.5332 43.4 93.3999C48.4667 91.2666 53.2667 88.9332 57.8 86.3999C62.3333 83.7332 66.0667 80.9999 69 78.1999ZM11 60.1999H28V103.8C28 109.4 27.8 115.467 27.4 122C27 128.533 26.2667 135.2 25.2 142C24.2667 148.667 22.8 155.2 20.8 161.6C18.9333 168 16.4667 173.733 13.4 178.8C12.4667 177.6 11.1333 176.267 9.4 174.8C7.8 173.333 6.13333 171.867 4.4 170.4C2.66666 168.933 1.2 167.867 -2.80142e-06 167.2C3.46666 160.933 5.93333 154.133 7.4 146.8C9 139.467 10 132.067 10.4 124.6C10.8 117.133 11 110.2 11 103.8V60.1999ZM21.6 36.9999L36.6 33.7999C38.2 37.5332 39.6667 41.6666 41 46.1999C42.3333 50.5999 43.1333 54.3999 43.4 57.5999L27.6 61.3999C27.3333 58.1999 26.6 54.3332 25.4 49.7999C24.3333 45.1332 23.0667 40.8666 21.6 36.9999ZM74 105L88.6 111C84.6 115.267 79.9333 119.4 74.6 123.4C69.2667 127.267 63.6667 130.8 57.8 134C51.9333 137.067 46 139.8 40 142.2C38.8 140.467 37.2 138.533 35.2 136.4C33.2 134.267 31.2667 132.467 29.4 131C34.8667 129.133 40.3333 126.867 45.8 124.2C51.4 121.4 56.6667 118.4 61.6 115.2C66.6667 111.867 70.8 108.467 74 105ZM79.6 133L95.4 138.4C91.2667 144.933 86.1333 150.867 80 156.2C73.8667 161.533 67 166.267 59.4 170.4C51.9333 174.667 44 178.267 35.6 181.2C34.4 179.2 32.8 177 30.8 174.6C28.9333 172.2 27 170.2 25 168.6C36.4667 165.133 47.1333 160.333 57 154.2C66.8667 148.067 74.4 141 79.6 133ZM96.2 7.19989H187V23.3999H96.2V7.19989ZM118.4 84.1999V100.8H166.2V84.1999H118.4ZM118.4 114.4V131H166.2V114.4H118.4ZM118.4 54.3999V70.5999H166.2V54.3999H118.4ZM102 39.9999H183.4V145.4H102V39.9999ZM133.2 15.5999L153 17.9999C151.533 23.7332 149.867 29.5332 148 35.3999C146.267 41.1332 144.6 46.1332 143 50.3999L127.6 47.5999C128.4 44.5332 129.133 41.1332 129.8 37.3999C130.6 33.6666 131.267 29.8666 131.8 25.9999C132.467 22.1332 132.933 18.6666 133.2 15.5999ZM119.6 146.8L135.6 156.6C132.267 160.067 128.267 163.6 123.6 167.2C118.933 170.667 114 173.867 108.8 176.8C103.733 179.867 98.8 182.467 94 184.6C92.5333 182.867 90.5333 180.8 88 178.4C85.4667 176.133 83.2 174.2 81.2 172.6C86.1333 170.6 91 168.2 95.8 165.4C100.733 162.467 105.267 159.4 109.4 156.2C113.667 152.867 117.067 149.733 119.6 146.8ZM147.2 157L161.2 147.8C164.8 150.333 168.533 153.2 172.4 156.4C176.4 159.467 180.2 162.533 183.8 165.6C187.4 168.667 190.333 171.467 192.6 174L177.8 184.2C175.667 181.667 172.867 178.8 169.4 175.6C166.067 172.4 162.4 169.2 158.4 166C154.533 162.8 150.8 159.8 147.2 157Z" fill="url(#paint0_linear_108_3)" fill-opacity="0.05"/>
<defs>
<linearGradient id="paint0_linear_108_3" x1="161.2" y1="46.3999" x2="96.2" y2="214.4" gradientUnits="userSpaceOnUse">
<stop stop-color="#8B8A8A" stop-opacity="0.29"/>
<stop offset="1" stop-color="#252424"/>
</linearGradient>
</defs>
</svg>
