<svg width="192" height="595" viewBox="0 0 192 595" fill="none" xmlns="http://www.w3.org/2000/svg">
<path d="M93.4 2.19999H112.4V148.8C112.4 152.667 112.667 155.6 113.2 157.6C113.867 159.467 115.067 160.733 116.8 161.4C118.667 162.067 121.333 162.4 124.8 162.4C126.133 162.4 128.333 162.4 131.4 162.4C134.6 162.4 138.067 162.4 141.8 162.4C145.667 162.4 149.267 162.4 152.6 162.4C155.933 162.4 158.333 162.4 159.8 162.4C163.267 162.4 165.867 161.4 167.6 159.4C169.333 157.4 170.6 153.8 171.4 148.6C172.2 143.4 172.867 136 173.4 126.4C175.8 128.133 178.667 129.8 182 131.4C185.467 132.867 188.533 133.933 191.2 134.6C190.267 145.8 188.867 154.733 187 161.4C185.267 168.067 182.333 172.867 178.2 175.8C174.2 178.733 168.533 180.2 161.2 180.2C160.133 180.2 158.267 180.2 155.6 180.2C153.067 180.2 150.133 180.2 146.8 180.2C143.6 180.2 140.333 180.2 137 180.2C133.667 180.2 130.733 180.2 128.2 180.2C125.667 180.2 123.933 180.2 123 180.2C115.4 180.2 109.4 179.267 105 177.4C100.733 175.533 97.7333 172.267 96 167.6C94.2667 163.067 93.4 156.667 93.4 148.4V2.19999ZM168.4 35.4L182.2 51.8C175.133 57.2667 167.333 62.6667 158.8 68C150.267 73.2 141.467 78.2667 132.4 83.2C123.467 88 114.6 92.6 105.8 97C105.133 94.7333 104 92.2 102.4 89.4C100.8 86.4667 99.3333 84 98 82C106.4 77.7333 114.867 73 123.4 67.8C132.067 62.4667 140.267 57.0667 148 51.6C155.867 46 162.667 40.6 168.4 35.4ZM56.8 -8.58307e-06L75.4 6.2C70.4667 17.9333 64.5333 29.5333 57.6 41C50.8 52.4667 43.4 63.2 35.4 73.2C27.5333 83.2 19.4667 92 11.2 99.6C10.5333 98 9.53334 96 8.2 93.6C6.86667 91.0667 5.46667 88.6 4 86.2C2.53334 83.6667 1.2 81.6 3.20375e-06 80C7.46667 73.7333 14.7333 66.4 21.8 58C28.8667 49.4667 35.4 40.2667 41.4 30.4C47.4 20.5333 52.5333 10.4 56.8 -8.58307e-06ZM34.6 54.2L53.4 35.4L53.6 35.8V182.4H34.6V54.2ZM135.8 253.6H153.8V373.2H135.8V253.6ZM128.4 203.2H147.4V237.8H128.4V203.2ZM110 293.4H183.2V310.6H110V293.4ZM95.8 230.8H188.8V248.6H95.8V230.8ZM99.8 364.6H189.6V381.8H99.8V364.6ZM86 230.8H104V286.8C104 294.267 103.667 302.467 103 311.4C102.333 320.333 101.133 329.467 99.4 338.8C97.6667 348 95.1333 356.933 91.8 365.6C88.4667 374.267 84.0667 382.133 78.6 389.2C77.6667 387.867 76.2667 386.4 74.4 384.8C72.6667 383.333 70.8667 381.8 69 380.2C67.2667 378.733 65.7333 377.667 64.4 377C69.3333 370.467 73.2 363.4 76 355.8C78.9333 348.2 81.0667 340.4 82.4 332.4C83.8667 324.4 84.8 316.533 85.2 308.8C85.7333 300.933 86 293.533 86 286.6V230.8ZM34.8 203.2H52.2V388.6H34.8V203.2ZM5.2 271.8H78.4V289.4H5.2V271.8ZM33.8 279.6L46 284.6C43.6 293.533 40.6 302.933 37 312.8C33.5333 322.667 29.6 332.067 25.2 341C20.9333 349.933 16.4 357.467 11.6 363.6C10.6667 360.8 9.26667 357.6 7.4 354C5.53334 350.267 3.8 347.133 2.2 344.6C6.46667 339.533 10.6 333.333 14.6 326C18.7333 318.667 22.4667 310.933 25.8 302.8C29.1333 294.533 31.8 286.8 33.8 279.6ZM50.6 295C51.9333 296.2 54 298.333 56.8 301.4C59.7333 304.467 62.7333 307.8 65.8 311.4C69 314.867 71.9333 318.133 74.6 321.2C77.2667 324.267 79.1333 326.4 80.2 327.6L68.8 342.8C67.4667 340.267 65.6 337.2 63.2 333.6C60.8 330 58.2 326.267 55.4 322.4C52.7333 318.533 50.1333 314.933 47.6 311.6C45.0667 308.133 43 305.4 41.4 303.4L50.6 295ZM5.8 220L19.4 216.6C22.2 223.667 24.5333 231.267 26.4 239.4C28.2667 247.533 29.4667 254.6 30 260.6L15.4 264.2C15.2667 260.2 14.7333 255.667 13.8 250.6C13 245.533 11.8667 240.333 10.4 235C9.06667 229.667 7.53334 224.667 5.8 220ZM66.4 215.4L83 219.4C81.2667 224.333 79.4667 229.533 77.6 235C75.7333 240.467 73.8 245.733 71.8 250.8C69.9333 255.867 68.1333 260.333 66.4 264.2L53.8 260.4C55.4 256.4 57 251.733 58.6 246.4C60.2 241.067 61.6667 235.667 63 230.2C64.3333 224.733 65.4667 219.8 66.4 215.4ZM7.6 459.4H65.6V478.6H7.6V459.4ZM87.4 409.4H107.4V569.4C107.4 575.533 106.6 580.2 105 583.4C103.4 586.6 100.733 589.067 97 590.8C93.1333 592.533 88.0667 593.667 81.8 594.2C75.6667 594.733 67.9333 595 58.6 595C58.3333 593 57.8 590.733 57 588.2C56.2 585.667 55.2667 583.133 54.2 580.6C53.2667 578.067 52.2667 575.933 51.2 574.2C58.1333 574.333 64.4667 574.467 70.2 574.6C76.0667 574.6 80 574.533 82 574.4C83.8667 574.4 85.2 574 86 573.2C86.9333 572.4 87.4 571.133 87.4 569.4V409.4ZM59.2 459.4H63.2L66.6 458.8L79.4 463.6C76.2 481.333 71.5333 497.467 65.4 512C59.4 526.533 52.3333 539.2 44.2 550C36.0667 560.8 27.1333 569.6 17.4 576.4C16.3333 574.933 14.8667 573.2 13 571.2C11.1333 569.2 9.2 567.333 7.2 565.6C5.2 563.733 3.4 562.333 1.8 561.4C11.2667 555.267 19.8 547.467 27.4 538C35.1333 528.533 41.6667 517.533 47 505C52.4667 492.467 56.5333 478.733 59.2 463.8V459.4ZM106.2 440.6C109.533 453.933 113.733 466.867 118.8 479.4C124 491.8 130.133 503.333 137.2 514C144.267 524.667 152.333 534.133 161.4 542.4C170.6 550.667 180.8 557.333 192 562.4C190.4 563.733 188.667 565.4 186.8 567.4C184.933 569.4 183.133 571.533 181.4 573.8C179.8 575.933 178.4 577.933 177.2 579.8C162 571.8 148.867 561 137.8 547.4C126.733 533.8 117.4 518.2 109.8 500.6C102.333 483 96.1333 464.133 91.2 444L106.2 440.6ZM167.4 441.2L185 453.6C179.533 459.6 173.533 465.8 167 472.2C160.467 478.6 153.933 484.733 147.4 490.6C140.867 496.467 134.733 501.533 129 505.8L115.4 495.2C121.133 490.667 127.133 485.333 133.4 479.2C139.8 472.933 146 466.533 152 460C158 453.333 163.133 447.067 167.4 441.2Z" fill="url(#paint0_linear_34_223)" fill-opacity="0.05"/>
<defs>
<linearGradient id="paint0_linear_34_223" x1="196.8" y1="266" x2="58.3" y2="320" gradientUnits="userSpaceOnUse">
<stop offset="0.105769" stop-color="#8B8A8A" stop-opacity="0.64"/>
<stop offset="1" stop-color="#252424"/>
</linearGradient>
</defs>
</svg>
