<svg width="190" height="599" viewBox="0 0 190 599" fill="none" xmlns="http://www.w3.org/2000/svg">
<path d="M12.6 27H174.4V43.8H12.6V27ZM22.2 57.6H165.8V73.6H22.2V57.6ZM4.40003 87.6H182.2V104.6H4.40003V87.6ZM3.00002 120.4H184.4V137.2H3.00002V120.4ZM83.2 37.2H102.8V100.6H83.2V37.2ZM37.4 7.00002L54.2 0.200021C57.5334 3.80001 60.7334 7.86668 63.8 12.4C66.8667 16.8 69.1334 20.8 70.6 24.4L52.8 32.2C51.6 28.6 49.5334 24.4 46.6 19.6C43.8 14.8 40.7334 10.6 37.4 7.00002ZM129.4 1.19209e-05L149.4 5.60001C146.333 10.2667 143.133 14.7334 139.8 19C136.467 23.2667 133.4 27 130.6 30.2L113.6 24.8C115.467 22.5334 117.333 20 119.2 17.2C121.2 14.2667 123.133 11.3333 125 8.40001C126.867 5.33334 128.333 2.53334 129.4 1.19209e-05ZM81.6 101.6H101.6C100.667 110.8 99.1334 119.267 97 127C95 134.6 92 141.533 88 147.8C84.1334 154.067 78.8667 159.667 72.2 164.6C65.6667 169.4 57.2667 173.6 47 177.2C36.7334 180.8 24.2667 183.8 9.60002 186.2C9.20002 184.467 8.46669 182.533 7.40002 180.4C6.33336 178.4 5.13336 176.333 3.80002 174.2C2.46669 172.2 1.20002 170.533 2.43783e-05 169.2C13.6 167.333 25 165 34.2 162.2C43.5334 159.4 51.1334 156.067 57 152.2C62.8667 148.333 67.4 143.933 70.6 139C73.9334 133.933 76.4 128.333 78 122.2C79.6 115.933 80.8 109.067 81.6 101.6ZM106.6 125.4C112.2 138.867 121.667 149.067 135 156C148.467 162.933 166.133 167.267 188 169C186.667 170.333 185.2 172.067 183.6 174.2C182.133 176.333 180.733 178.467 179.4 180.6C178.2 182.733 177.2 184.733 176.4 186.6C160.933 184.6 147.533 181.267 136.2 176.6C124.867 172.067 115.333 165.867 107.6 158C100 150.133 93.8 140.333 89 128.6L106.6 125.4ZM58.4 248.2L76.8 254.2C72.4 260.2 67.3334 266 61.6 271.6C56 277.2 50.0667 282.4 43.8 287.2C37.5334 291.867 31.3334 296 25.2 299.6C24.2667 298.267 23 296.667 21.4 294.8C19.8 292.8 18.1334 290.867 16.4 289C14.6667 287.133 13.1334 285.667 11.8 284.6C20.7334 280.333 29.4 275 37.8 268.6C46.2 262.067 53.0667 255.267 58.4 248.2ZM108.6 259L121.6 248C127.6 251.467 133.867 255.4 140.4 259.8C146.933 264.2 153.133 268.667 159 273.2C164.867 277.733 169.667 281.867 173.4 285.6L159.2 298.4C155.733 294.533 151.133 290.267 145.4 285.6C139.8 280.933 133.733 276.267 127.2 271.6C120.8 266.933 114.6 262.733 108.6 259ZM93.8 289C88.4667 296.067 81.5334 303.333 73 310.8C64.4667 318.267 55 325.4 44.6 332.2C34.3334 339 23.7334 344.933 12.8 350C12.1334 348.4 11.1334 346.667 9.80002 344.8C8.60003 342.933 7.33336 341 6.00002 339C4.66669 337 3.33336 335.4 2.00002 334.2C13.2 329.4 24 323.533 34.4 316.6C44.9334 309.667 54.4 302.333 62.8 294.6C71.3334 286.733 78.2 279.133 83.4 271.8H102.6C107.933 278.2 113.867 284.4 120.4 290.4C127.067 296.267 134.067 301.8 141.4 307C148.867 312.067 156.467 316.667 164.2 320.8C172.067 324.8 179.8 328.267 187.4 331.2C185.267 333.467 183.133 336.2 181 339.4C179 342.6 177.2 345.533 175.6 348.2C168.267 344.867 160.733 340.933 153 336.4C145.267 331.867 137.733 327 130.4 321.8C123.2 316.6 116.4 311.2 110 305.6C103.733 300 98.3334 294.467 93.8 289ZM37.8 324.2H149.8V391.8H130.6V341H56.2V392.4H37.8V324.2ZM46.4 369.2H140.6V386H46.4V369.2ZM83.2 206.6H102.6V233.6H83.2V206.6ZM9.00002 224H178V263.4H158.6V241.2H27.4V263.4H9.00002V224ZM122.4 503.2L132 495.6C135.333 498.533 138.667 501.867 142 505.6C145.467 509.333 148 512.667 149.6 515.6L139.6 524.4C138 521.333 135.6 517.8 132.4 513.8C129.2 509.8 125.867 506.267 122.4 503.2ZM52.8 433.6H185.4V451.6H52.8V433.6ZM119 475.8H166.2V490.8H119V475.8ZM107.8 412.4H127V441.6H107.8V412.4ZM78.4 452.6L96.2 457.6C93 465.867 89.1334 474.4 84.6 483.2C80.0667 492 75.1334 500.467 69.8 508.6C64.4667 516.733 58.8 523.933 52.8 530.2C51.3334 528.467 49.3334 526.4 46.8 524C44.2667 521.6 42.0667 519.733 40.2 518.4C45.8 512.667 51.0667 506.067 56 498.6C60.9334 491.133 65.3334 483.4 69.2 475.4C73.0667 467.4 76.1334 459.8 78.4 452.6ZM119.4 453L136.8 457.2C133.733 466 130 475 125.6 484.2C121.333 493.267 116.467 501.933 111 510.2C105.667 518.467 99.8667 525.8 93.6 532.2C92.1334 530.467 90.2 528.467 87.8 526.2C85.4 523.8 83.3334 521.867 81.6 520.4C87.4667 514.8 92.8 508.2 97.6 500.6C102.533 492.867 106.867 484.867 110.6 476.6C114.333 468.333 117.267 460.467 119.4 453ZM162.6 475.8H165.8L168.8 475L180.2 479.2C176.333 499.733 170.333 517.733 162.2 533.2C154.2 548.533 144.533 561.6 133.2 572.4C122 583.067 109.533 591.667 95.8 598.2C94.7334 596.067 93.1334 593.6 91 590.8C88.8667 588 86.8 585.733 84.8 584C97.3334 578.667 108.867 571.133 119.4 561.4C130.067 551.533 139.133 539.733 146.6 526C154.067 512.133 159.4 496.533 162.6 479.2V475.8ZM9.40003 427.6L20.2 414.2C23.9334 415.8 27.8667 417.8 32 420.2C36.2667 422.467 40.2 424.867 43.8 427.4C47.5334 429.8 50.5334 432.133 52.8 434.4L41.4 449.4C39.2667 447.133 36.4 444.733 32.8 442.2C29.2 439.533 25.3334 436.933 21.2 434.4C17.2 431.867 13.2667 429.6 9.40003 427.6ZM0.400024 481.8L10.8 468C14.6667 469.333 18.6667 471.067 22.8 473.2C26.9334 475.2 30.8667 477.333 34.6 479.6C38.3334 481.867 41.4 484 43.8 486L32.6 501.4C30.3334 499.267 27.4 497 23.8 494.6C20.2 492.2 16.3334 489.867 12.2 487.6C8.06669 485.333 4.13336 483.4 0.400024 481.8ZM4.40003 586.4C7.20003 581.2 10.1334 575.067 13.2 568C16.4 560.8 19.6 553.267 22.8 545.4C26.1334 537.533 29.1334 529.8 31.8 522.2L47 532.8C44.6 539.733 41.9334 546.933 39 554.4C36.2 561.867 33.3334 569.2 30.4 576.4C27.4667 583.6 24.5334 590.4 21.6 596.8L4.40003 586.4ZM114.4 500C118.8 512.267 124.6 523.8 131.8 534.6C139.133 545.4 147.6 555 157.2 563.4C166.933 571.667 177.6 578.2 189.2 583C187.867 584.2 186.4 585.667 184.8 587.4C183.333 589.133 181.867 590.933 180.4 592.8C179.067 594.667 177.867 596.4 176.8 598C159.067 589.333 143.667 576.8 130.6 560.4C117.533 544 107.333 525.267 100 504.2L114.4 500ZM66.2 493.6L82.4 477.2L83 477.6V598H66.2V493.6Z" fill="url(#paint0_linear_34_227)" fill-opacity="0.05"/>
<defs>
<linearGradient id="paint0_linear_34_227" x1="-6.59998" y1="183.4" x2="174.4" y2="296.4" gradientUnits="userSpaceOnUse">
<stop stop-color="#8B8A8A" stop-opacity="0.49"/>
<stop offset="1" stop-color="#252424"/>
</linearGradient>
</defs>
</svg>
