<svg width="185" height="186" viewBox="0 0 185 186" fill="none" xmlns="http://www.w3.org/2000/svg">
<path d="M99.2 55.5998H180.2V72.9998H99.2V55.5998ZM23.6 100.8H75V114.6H23.6V100.8ZM24 129.4H74.2V143.2H24V129.4ZM-2.41995e-05 18.7998H99.2V34.9998H-2.41995e-05V18.7998ZM126.4 0.199794H144.8V52.1998C144.8 61.9331 144.333 72.4665 143.4 83.7998C142.6 95.1331 140.733 106.8 137.8 118.8C135 130.666 130.8 142.333 125.2 153.8C119.6 165.133 112.067 175.733 102.6 185.6C101.667 184.266 100.333 182.8 98.6 181.2C97 179.6 95.2667 178 93.4 176.4C91.5333 174.8 89.8 173.533 88.2 172.6C97.5333 163.933 104.733 154.4 109.8 144C115 133.466 118.8 122.8 121.2 112C123.6 101.2 125.067 90.6665 125.6 80.3998C126.133 70.1331 126.4 60.7331 126.4 52.1998V0.199794ZM147.4 64.5998C149.133 79.5331 151.467 93.7998 154.4 107.4C157.467 120.866 161.467 133 166.4 143.8C171.333 154.6 177.467 163.466 184.8 170.4C183.467 171.466 181.933 172.866 180.2 174.6C178.467 176.466 176.8 178.333 175.2 180.2C173.733 182.2 172.467 184.066 171.4 185.8C163.533 177.533 157 167.4 151.8 155.4C146.733 143.266 142.6 129.733 139.4 114.8C136.333 99.7331 133.867 83.7998 132 66.9998L147.4 64.5998ZM149.6 12.3998L164.2 6.3998C168.067 11.1998 171.667 16.5998 175 22.5998C178.467 28.4665 181 33.5998 182.6 37.9998L166.8 44.5998C165.6 40.1998 163.333 34.9998 160 28.9998C156.667 22.8665 153.2 17.3331 149.6 12.3998ZM40.2 -0.000203609H58.2V61.3998H40.2V-0.000203609ZM42 106.4H56.4V176.4H42V106.4ZM25.8 75.5998L36 72.5998C37.8666 76.4665 39.5333 80.6665 41 85.1998C42.6 89.7331 43.6 93.5998 44 96.7998L33.2 100.4C32.8 97.0665 31.8666 93.1331 30.4 88.5998C29.0666 83.9331 27.5333 79.5998 25.8 75.5998ZM60.8 71.3998L73.2 74.7998C71.4666 79.1998 69.7333 83.6665 68 88.1998C66.2666 92.7331 64.6666 96.5998 63.2 99.7998L53.2 96.9998C54.4 93.3998 55.7333 89.1998 57.2 84.3998C58.8 79.4665 60 75.1331 60.8 71.3998ZM2.79998 53.9998H88.8V69.3998H18.6V185H2.79998V53.9998ZM80 53.9998H96.2V166.8C96.2 170.666 95.7333 173.733 94.8 176C94 178.4 92.4 180.266 90 181.6C87.6 182.8 84.5333 183.533 80.8 183.8C77.2 184.2 72.8666 184.4 67.8 184.4C67.5333 182.266 66.9333 179.733 66 176.8C65.2 173.866 64.3333 171.333 63.4 169.2C66.4666 169.333 69.3333 169.4 72 169.4C74.6666 169.533 76.4666 169.533 77.4 169.4C79.1333 169.4 80 168.466 80 166.6V53.9998Z" fill="url(#paint0_linear_66_132)" fill-opacity="0.15"/>
<defs>
<linearGradient id="paint0_linear_66_132" x1="150.1" y1="116.8" x2="-46.9" y2="27.7998" gradientUnits="userSpaceOnUse">
<stop stop-color="#FFB2B2"/>
<stop offset="1" stop-color="#C09999" stop-opacity="0.41"/>
</linearGradient>
</defs>
</svg>
