<svg width="231" height="363" viewBox="0 0 231 363" fill="none" xmlns="http://www.w3.org/2000/svg">
<path d="M82 363V299.5H146.5V363H82ZM87.5 264.5C87.5 243 89.5 225.5 94 212C98.5 198.5 108 185 122 172C123 171 126.5 168 131.5 163.5C136.5 159 140 156 142 154C143.5 152.5 146.5 149.5 150.5 145.5C154.5 141.5 157 138 158.5 135C160 132.5 162 129 164 125C166 121 167.5 116.5 168.5 112.5C169.5 108.5 170 104 170 99C170 84.5 165 72.5 155.5 63C145.5 54 133 49 118 49C79 49 58.5 73 57.5 120H1.74344e-06C1.5 83 12.5 54 32.5 32.5C52.5 11 81 -5.48363e-06 119 -5.48363e-06C152.5 -5.48363e-06 179.5 9.49999 200 27.5C220.5 45.5 231 69.5 231 99C231 110 229.5 120 227.5 128.5C225 137.5 221 145.5 215 153C209 161 203.5 167 199 171.5C194 176.5 186.5 183 176.5 191.5C159.5 206 149.5 216.5 146.5 223C143 229.5 141.5 243.5 141.5 264.5H87.5Z" fill="url(#paint0_linear_115_100)" fill-opacity="0.05"/>
<defs>
<linearGradient id="paint0_linear_115_100" x1="326.741" y1="305.601" x2="-8.90534" y2="-61.8461" gradientUnits="userSpaceOnUse">
<stop stop-color="#8B8A8A" stop-opacity="0.29"/>
<stop offset="0.717332" stop-color="#252424"/>
</linearGradient>
</defs>
</svg>
