<svg width="238" height="40" viewBox="0 0 238 40" fill="none" xmlns="http://www.w3.org/2000/svg">
<path d="M60.4777 12.8263V28.6546H58.6079V12.8263H52.7665V11.0088H66.0325V12.8263H60.4777ZM82.0106 28.6546C82.2978 28.0693 90.5019 11.0263 90.6283 10.762H90.7336C90.8412 11.0093 98.809 27.7532 99.222 28.6546H97.1201C96.911 28.2356 96.1659 26.6366 95.85 25.9707C95.3379 25.9707 86.1134 25.979 85.3602 25.979C85.1553 26.3824 84.3202 28.0985 84.0881 28.6546C83.7541 28.68 82.4011 28.6546 82.0106 28.6546ZM90.6283 14.7629C90.165 15.7702 86.5269 23.4444 86.2192 24.158C86.9179 24.158 94.2195 24.1459 94.9747 24.1459C94.7655 23.6459 91.0461 15.6893 90.6283 14.7629ZM214.29 28.6546C214.58 28.0693 222.786 11.0263 222.912 10.762H223.017C223.115 11.0093 231.089 27.7532 231.504 28.6546H229.396C228.972 27.7622 228.553 26.8675 228.138 25.9707C227.617 25.9707 218.397 25.979 217.64 25.979C217.435 26.3824 216.603 28.0985 216.374 28.6546C216.03 28.68 214.683 28.6546 214.29 28.6546ZM222.912 14.7629C222.446 15.7702 218.812 23.4444 218.497 24.158C219.201 24.158 226.503 24.1459 227.254 24.1459C227.044 23.6459 223.323 15.6893 222.912 14.7629ZM122.964 12.8263V28.6546H121.098V12.8263H115.255V11.0088H128.519V12.8263H122.964ZM155.876 29.0849C150.865 29.0849 146.789 24.9478 146.789 19.8507C146.789 14.7332 150.865 10.5829 155.876 10.5829C158.419 10.5829 160.784 11.5585 162.417 13.4107C162.131 13.6985 161.354 14.5473 161.014 14.8434C160.377 14.0996 159.591 13.5042 158.708 13.0974C157.825 12.6907 156.867 12.4821 155.898 12.4859C152.034 12.4859 148.868 15.7702 148.868 19.8507C148.868 23.9176 152.034 27.1785 155.898 27.1785C157.901 27.1785 159.692 26.2956 160.991 24.8698C161.304 25.1888 162.101 25.9829 162.361 26.2712C160.755 28.0195 158.449 29.0849 155.876 29.0849ZM182.419 11.0088H184.238V23.879H194.024V11.0088H195.869V28.6546H194.024V25.7049H184.238V28.6546H182.419V11.0088ZM234.68 26.5693H233.993V26.3507H235.603V26.5693H234.916V28.44H234.68V26.5693ZM236.038 26.3507H236.273L237.019 27.4912L237.766 26.3507H238V28.44H237.77V26.7473L237.023 27.8659H237.01L236.262 26.7502V28.44H236.038V26.3507ZM19.621 40C8.80239 40 0 31.0288 0 19.999C0 8.96927 8.80239 0 19.621 0C30.4396 0 39.242 8.97268 39.242 19.999C39.242 31.0254 30.4401 40 19.621 40ZM19.6205 3.07707C10.4654 3.07707 3.01788 10.6683 3.01788 19.999C3.01788 29.3298 10.465 36.9229 19.6205 36.9229C28.7761 36.9229 36.2232 29.3317 36.2232 19.999C36.2232 10.6663 28.7766 3.07707 19.6215 3.07707M19.6411 23.8785C19.5109 23.8785 19.3817 23.8298 19.2827 23.7283L18.1834 22.6063L18.1006 22.6907L11.8207 29.1488C11.8207 29.1488 11.0718 29.8063 11.503 30.36L13.938 32.9195C13.938 32.9195 14.3438 33.4902 14.9855 33.2415C15.4565 33.0605 17.4129 32.2298 18.6165 31.6898L15.8192 28.9615C15.7214 28.8661 15.6647 28.7349 15.6617 28.5969C15.6587 28.4589 15.7096 28.3254 15.8032 28.2256C15.8968 28.1259 16.0254 28.0681 16.1608 28.065C16.2962 28.062 16.4273 28.1139 16.5251 28.2093L19.5937 31.2029L19.6066 31.2141L22.5465 28.2166C22.6425 28.1193 22.7723 28.0647 22.9076 28.0647C23.0429 28.0647 23.1727 28.1193 23.2687 28.2166C23.3642 28.3146 23.4178 28.4472 23.4178 28.5854C23.4178 28.7235 23.3642 28.8561 23.2687 28.9541L20.5815 31.6927C21.7865 32.2351 23.7315 33.0634 24.2033 33.2415C24.8571 33.4902 25.2519 32.9195 25.2519 32.9195L27.6854 30.36C28.1693 29.7746 27.3681 29.1488 27.3681 29.1488L21.0893 22.6917L21.0524 22.6546L19.9991 23.7288C19.952 23.7768 19.896 23.8148 19.8344 23.8406C19.7728 23.8664 19.7068 23.8795 19.6402 23.879L19.6411 23.8785ZM15.9882 19.6385L17.0602 18.5459L16.986 18.4698L10.6506 12.0683C10.6506 12.0683 10.0074 11.3073 9.46282 11.7454L6.95127 14.2273C6.95127 14.2273 6.39086 14.642 6.63445 15.2956C6.81344 15.7761 7.62797 17.7688 8.15919 18.9971L10.8349 16.1468C10.8801 16.0933 10.9355 16.0496 10.9977 16.0186C11.06 15.9875 11.1278 15.9697 11.197 15.9663C11.2663 15.9628 11.3355 15.9737 11.4004 15.9984C11.4654 16.0231 11.5247 16.061 11.5748 16.1098C11.6249 16.1586 11.6648 16.2173 11.6919 16.2823C11.7191 16.3473 11.733 16.4172 11.7327 16.4879C11.7325 16.5585 11.7182 16.6284 11.6906 16.6932C11.663 16.758 11.6228 16.8164 11.5724 16.8649L8.63585 19.9932L8.62388 20.0054L11.5647 23.0024C11.6599 23.1004 11.7133 23.2328 11.7133 23.3707C11.7133 23.5087 11.6599 23.641 11.5647 23.739C11.4688 23.8363 11.3389 23.8909 11.2036 23.8909C11.0683 23.8909 10.9385 23.8363 10.8425 23.739L8.15536 20.9995C7.62366 22.2288 6.81057 24.2102 6.63445 24.6922C6.39038 25.3576 6.95127 25.7605 6.95127 25.7605L9.46282 28.24C10.0371 28.7351 10.6506 27.918 10.6506 27.918L16.9855 21.5171L17.0496 21.4527L15.9872 20.3698C15.94 20.3217 15.9026 20.2647 15.8771 20.2019C15.8515 20.1392 15.8384 20.0719 15.8384 20.0039C15.8384 19.9359 15.8515 19.8687 15.8771 19.8059C15.9026 19.7431 15.94 19.6861 15.9872 19.638L15.9882 19.6385ZM20 16.281L21.0586 17.3615L21.1122 17.3078L27.3902 10.8507C27.3902 10.8507 28.1391 10.1941 27.7079 9.64049L25.2749 7.08098C25.2749 7.08098 24.8671 6.51024 24.2258 6.75902C23.7544 6.94 21.7995 7.77024 20.5949 8.31073L23.3917 11.0376C23.5951 11.2376 23.6027 11.5678 23.408 11.7756C23.3065 11.8805 23.1735 11.9351 23.0394 11.9351C22.9121 11.9351 22.7844 11.8878 22.6863 11.7922L19.6167 8.79707L19.6043 8.78634L16.6644 11.7849C16.5681 11.8813 16.4385 11.9353 16.3035 11.9353C16.1686 11.9353 16.039 11.8813 15.9427 11.7849C15.8471 11.6866 15.7935 11.5538 15.7935 11.4154C15.7935 11.277 15.8471 11.1442 15.9427 11.0459L18.6289 8.30781C17.4244 7.76537 15.4799 6.93805 15.008 6.75902C14.3543 6.51024 13.9581 7.08098 13.9581 7.08098L11.5259 9.64049C11.0412 10.2249 11.8418 10.8502 11.8418 10.8502L18.1221 17.3078L18.1996 17.3873L19.2827 16.281C19.3781 16.1845 19.5071 16.1303 19.6416 16.1303C19.776 16.1303 19.9046 16.1845 20 16.281ZM31.0838 21.0137L28.4071 23.8624C28.3614 23.9142 28.306 23.956 28.2442 23.9855C28.1823 24.015 28.1153 24.0315 28.047 24.0341C27.9788 24.0367 27.9107 24.0253 27.8469 24.0006C27.7831 23.9759 27.7248 23.9383 27.6754 23.8902C27.6261 23.8421 27.5867 23.7844 27.5596 23.7205C27.5326 23.6566 27.5184 23.5878 27.5179 23.5182C27.5174 23.4486 27.5306 23.3796 27.5568 23.3153C27.5829 23.251 27.6215 23.1927 27.6701 23.1439L30.6071 20.0151L30.6181 20.0029L27.6763 17.0063C27.5811 16.9086 27.5276 16.7763 27.5276 16.6385C27.5276 16.5007 27.5811 16.3685 27.6763 16.2707C27.7724 16.173 27.9025 16.1182 28.0381 16.1182C28.1738 16.1182 28.3039 16.173 28.3999 16.2707L31.0867 19.0112C31.6179 17.781 32.4324 15.799 32.608 15.3176C32.8521 14.6517 32.2912 14.2483 32.2912 14.2483L29.7787 11.7693C29.2054 11.2741 28.5919 12.0912 28.5919 12.0912L22.2565 18.4927L22.212 18.5366L23.2936 19.639C23.3407 19.687 23.3782 19.7441 23.4037 19.8069C23.4292 19.8696 23.4424 19.9369 23.4424 20.0049C23.4424 20.0728 23.4292 20.1401 23.4037 20.2029C23.3782 20.2657 23.3407 20.3227 23.2936 20.3707L22.2 21.4844L22.2565 21.541L28.5914 27.941C28.5914 27.941 29.2351 28.702 29.7782 28.2649L32.2907 25.7829C32.2907 25.7829 32.8512 25.3693 32.6076 24.7137C32.4281 24.2317 31.614 22.2415 31.0828 21.0141" fill="#1B1B1B"/>
</svg>
